<?xml version="1.0" encoding="UTF-8"?>
<svg xmlns="http://www.w3.org/2000/svg" xmlns:xlink="http://www.w3.org/1999/xlink" viewBox="0 0 55 55" width="55px" height="55px">
<g id="surface146480569">
<path style=" stroke:none;fill-rule:nonzero;fill:rgb(67.058825%,54.509807%,99.215686%);fill-opacity:1;" d="M 50.75 7.207031 C 49.925781 6.507812 48.628906 6.40625 47.289062 6.945312 C 45.878906 7.511719 7.402344 24.015625 5.835938 24.691406 C 5.550781 24.789062 3.0625 25.71875 3.316406 27.785156 C 3.546875 29.648438 5.546875 30.421875 5.789062 30.511719 L 15.574219 33.859375 C 16.222656 36.019531 18.613281 43.992188 19.144531 45.695312 C 19.472656 46.753906 20.011719 48.148438 20.953125 48.4375 C 21.78125 48.757812 22.605469 48.464844 23.136719 48.046875 L 29.117188 42.5 L 38.773438 50.027344 L 39 50.167969 C 39.65625 50.457031 40.285156 50.601562 40.886719 50.601562 C 41.347656 50.601562 41.792969 50.515625 42.21875 50.339844 C 43.664062 49.746094 44.242188 48.371094 44.300781 48.214844 L 51.515625 10.726562 C 51.953125 8.726562 51.34375 7.707031 50.75 7.207031 Z M 24.199219 35.199219 L 20.898438 44 L 17.601562 33 L 42.898438 14.300781 Z M 24.199219 35.199219 "/>
</g>
</svg>
