<?xml version="1.0" encoding="UTF-8"?>
<svg xmlns="http://www.w3.org/2000/svg" xmlns:xlink="http://www.w3.org/1999/xlink" viewBox="0 0 45 45" width="45px" height="45px">
<g id="surface146479016">
<path style=" stroke:none;fill-rule:nonzero;fill:rgb(67.058825%,54.509807%,99.215686%);fill-opacity:1;" d="M 41.523438 5.898438 C 40.847656 5.324219 39.789062 5.242188 38.691406 5.683594 C 37.539062 6.144531 6.054688 19.648438 4.773438 20.199219 C 4.539062 20.28125 2.503906 21.042969 2.714844 22.734375 C 2.902344 24.257812 4.539062 24.890625 4.738281 24.964844 L 12.742188 27.703125 C 13.273438 29.472656 15.230469 35.992188 15.664062 37.386719 C 15.933594 38.253906 16.371094 39.394531 17.144531 39.628906 C 17.820312 39.890625 18.492188 39.652344 18.929688 39.3125 L 23.824219 34.773438 L 31.722656 40.933594 L 31.910156 41.046875 C 32.445312 41.28125 32.960938 41.402344 33.453125 41.402344 C 33.832031 41.402344 34.195312 41.332031 34.542969 41.1875 C 35.722656 40.703125 36.199219 39.574219 36.246094 39.445312 L 42.148438 8.777344 C 42.507812 7.140625 42.007812 6.304688 41.523438 5.898438 Z M 19.800781 28.800781 L 17.101562 36 L 14.398438 27 L 35.101562 11.699219 Z M 19.800781 28.800781 "/>
</g>
</svg>
